<svg xmlns="http://www.w3.org/2000/svg" viewBox="0 0 1200 630" width="1200" height="630">
  <defs>
    <linearGradient id="bg" x1="0%" y1="0%" x2="100%" y2="100%">
      <stop offset="0%" style="stop-color:#0f172a"/>
      <stop offset="50%" style="stop-color:#1e3a5f"/>
      <stop offset="100%" style="stop-color:#4a90b8"/>
    </linearGradient>
    <linearGradient id="sun" x1="0%" y1="0%" x2="100%" y2="100%">
      <stop offset="0%" style="stop-color:#fbbf24"/>
      <stop offset="100%" style="stop-color:#f59e0b"/>
    </linearGradient>
    <linearGradient id="cloud" x1="0%" y1="0%" x2="100%" y2="100%">
      <stop offset="0%" style="stop-color:#ffffff"/>
      <stop offset="100%" style="stop-color:#e0e7ff"/>
    </linearGradient>
  </defs>

  <rect width="1200" height="630" fill="url(#bg)"/>

  <circle cx="950" cy="180" r="90" fill="url(#sun)" opacity="0.9"/>
  <circle cx="950" cy="180" r="130" fill="url(#sun)" opacity="0.1"/>

  <g fill="url(#cloud)" opacity="0.85">
    <ellipse cx="780" cy="320" rx="160" ry="70"/>
    <ellipse cx="900" cy="290" rx="130" ry="60"/>
    <ellipse cx="820" cy="360" rx="170" ry="65"/>
    <ellipse cx="960" cy="350" rx="110" ry="55"/>
  </g>

  <g fill="#60a5fa" opacity="0.5">
    <ellipse cx="720" cy="490" rx="7" ry="5"/>
    <ellipse cx="790" cy="510" rx="7" ry="5"/>
    <ellipse cx="860" cy="495" rx="7" ry="5"/>
    <ellipse cx="930" cy="515" rx="7" ry="5"/>
    <ellipse cx="1000" cy="500" rx="7" ry="5"/>
  </g>

  <g font-family="-apple-system, BlinkMacSystemFont, 'Segoe UI', Roboto, sans-serif" text-anchor="start">
    <text x="80" y="230" font-size="72" font-weight="700" fill="#ffffff">Weather Extension</text>
    <text x="85" y="300" font-size="28" fill="#94a3b8">Current weather &amp; 7-day forecast</text>
    <text x="85" y="345" font-size="20" fill="#64748b">24 languages &amp; Open Source</text>
  </g>

  <g transform="translate(1180, 315) rotate(90)">
    <text x="0" y="0" font-family="-apple-system, BlinkMacSystemFont, 'Segoe UI', Roboto, sans-serif" font-size="12" fill="rgba(255,255,255,0.3)" text-anchor="middle">Copyright 2026 github.com/6jt8</text>
  </g>
</svg>
